<?xml version="1.0" encoding="UTF-8"?>
<svg id="Layer_2" data-name="Layer 2" xmlns="http://www.w3.org/2000/svg" viewBox="0 0 111.61 26.57">
  <defs>
    <style>
      .cls-1 {
        fill: #1f5d2f;
      }

      .cls-1, .cls-2, .cls-3 {
        stroke-width: 0px;
      }

      .cls-2 {
        fill: #98cc67;
      }

      .cls-3 {
        fill: #feee89;
      }
    </style>
  </defs>
  <g id="Layer_1-2" data-name="Layer 1">
    <g>
      <rect class="cls-2" y="10.77" width="48.15" height="10.77"/>
      <circle class="cls-2" cx="10.77" cy="10.77" r="10.77"/>
      <circle class="cls-2" cx="37.37" cy="10.77" r="10.77"/>
    </g>
    <path class="cls-1" d="M24.07,19.07c1.52,0,2.77-1.24,2.77-2.77h-1c0,.97-.79,1.77-1.77,1.77s-1.77-.79-1.77-1.77h-1c0,1.52,1.24,2.77,2.77,2.77Z"/>
    <circle class="cls-3" cx="10.77" cy="10.77" r="6.91"/>
    <circle class="cls-1" cx="10.77" cy="10.77" r="3.17"/>
    <circle class="cls-3" cx="37.37" cy="10.77" r="6.91"/>
    <circle class="cls-1" cx="37.37" cy="10.77" r="3.17"/>
    <path class="cls-2" d="M65.44,25.99c-.39.39-.89.59-1.5.59h-.1c-1.62,0-2.96-.54-4.04-1.62s-1.62-2.43-1.62-4.04v-5.3c0-.4-.14-.74-.43-1.02-.29-.28-.63-.42-1.03-.42h-2.14v5.04c0,.61-.2,1.11-.6,1.5-.4.39-.9.59-1.51.59s-1.11-.2-1.5-.59c-.39-.39-.59-.89-.59-1.5V5.33c0-.61.2-1.11.59-1.51s.89-.6,1.5-.6,1.11.2,1.51.6.6.9.6,1.51v4.61l.72.02c.38-.05.7-.21.94-.49.24-.28.36-.61.36-1,0-.59.2-1.09.6-1.49s.9-.6,1.49-.6,1.11.2,1.51.6.6.9.6,1.51c0,.93-.22,1.8-.65,2.62,1.49,1.1,2.23,2.6,2.23,4.49v5.3c0,.42.14.76.42,1.04.28.28.63.42,1.04.42h.1c.62,0,1.13.2,1.51.59.38.39.58.9.58,1.52s-.2,1.11-.59,1.5Z"/>
    <path class="cls-2" d="M73.28,10.95l-3.48,9c-.42,1.07-1.07,1.61-1.97,1.61s-1.55-.54-1.97-1.61l-3.48-9c-.1-.26-.14-.52-.14-.79,0-.59.21-1.08.64-1.48.42-.39.93-.59,1.52-.59.93,0,1.57.46,1.92,1.37l1.51,3.94,1.51-3.94c.35-.91.99-1.37,1.92-1.37.59,0,1.1.2,1.52.59s.64.88.64,1.48c0,.27-.05.54-.14.79Z"/>
    <path class="cls-3" d="M79.42,12.37c-.54.13-.99.41-1.33.85-.34.44-.52.94-.52,1.5,0,.67.23,1.24.7,1.72.46.47,1.03.71,1.7.71h2.14c.61,0,1.11.2,1.5.59.39.39.59.89.59,1.5s-.2,1.11-.59,1.51-.89.6-1.5.6h-2.14c-1.87,0-3.44-.64-4.7-1.91-1.26-1.27-1.9-2.84-1.9-4.72s.63-3.44,1.9-4.7,2.83-1.9,4.7-1.9,3.48.67,4.78,2.02c.42.43.62.91.62,1.44,0,.67-.29,1.23-.86,1.68l-3.05,2.98c-.45.43-.94.65-1.46.65-.59,0-1.1-.21-1.51-.64-.42-.42-.62-.93-.62-1.52,0-.45.18-.89.53-1.32l1.03-1.03Z"/>
    <path class="cls-2" d="M99.73,25.99c-.4.39-.9.59-1.51.59h-.1c-1.6,0-2.94-.54-4.03-1.63-1.09-1.09-1.63-2.43-1.63-4.03v-2.83c0-.42-.14-.76-.42-1.03-.28-.27-.63-.41-1.04-.41h-1.08v2.57c0,.61-.2,1.11-.6,1.5-.4.39-.9.59-1.51.59s-1.11-.2-1.5-.59c-.39-.39-.59-.89-.59-1.5V5.33c0-.61.2-1.11.59-1.51s.89-.6,1.5-.6,1.11.2,1.51.6.6.9.6,1.51v6.31c1.34.05,2.02-.42,2.02-1.39,0-.64.19-1.16.56-1.55.38-.39.88-.59,1.52-.59s1.11.2,1.51.59c.4.39.6.89.6,1.5,0,1.41-.46,2.63-1.37,3.67,1.26,1.09,1.9,2.49,1.9,4.2v2.83c0,.42.14.76.42,1.04s.63.42,1.04.42h.1c.61,0,1.11.2,1.51.6.4.4.6.9.6,1.51s-.2,1.11-.6,1.5Z"/>
    <path class="cls-2" d="M111.01,25.99c-.4.39-.9.59-1.51.59h-.1c-1.6,0-2.94-.54-4.03-1.63-1.09-1.09-1.63-2.43-1.63-4.03v-2.83c0-.42-.14-.76-.42-1.03-.28-.27-.63-.41-1.04-.41h-1.08v2.57c0,.61-.2,1.11-.6,1.5-.4.39-.9.59-1.51.59s-1.11-.2-1.5-.59c-.39-.39-.59-.89-.59-1.5V5.33c0-.61.2-1.11.59-1.51s.89-.6,1.5-.6,1.11.2,1.51.6.6.9.6,1.51v6.31c1.34.05,2.02-.42,2.02-1.39,0-.64.19-1.16.56-1.55.38-.39.88-.59,1.52-.59s1.11.2,1.51.59c.4.39.6.89.6,1.5,0,1.41-.46,2.63-1.37,3.67,1.26,1.09,1.9,2.49,1.9,4.2v2.83c0,.42.14.76.42,1.04.28.28.63.42,1.04.42h.1c.61,0,1.11.2,1.51.6.4.4.6.9.6,1.51s-.2,1.11-.6,1.5Z"/>
  </g>
</svg>