<?xml version="1.0" encoding="UTF-8"?>
<svg id="Layer_2" data-name="Layer 2" xmlns="http://www.w3.org/2000/svg" viewBox="0 0 989.35 512.37">
  <defs>
    <style>
      .cls-1 {
        fill: #6ebe45;
      }

      .cls-1, .cls-2, .cls-3, .cls-4, .cls-5, .cls-6, .cls-7 {
        stroke-width: 0px;
      }

      .cls-2 {
        fill: #569341;
      }

      .cls-3 {
        fill: #131f2d;
      }

      .cls-4 {
        fill: #c498be;
      }

      .cls-5 {
        fill: #b25ea5;
      }

      .cls-6 {
        fill: #c383b9;
      }

      .cls-7 {
        fill: #fff;
      }
    </style>
  </defs>
  <g id="Layer_1-2" data-name="Layer 1">
    <rect class="cls-1" x="530.26" y="64.24" width="287.06" height="104.6"/>
    <ellipse class="cls-2" cx="673.79" cy="168.84" rx="143.53" ry="117.17"/>
    <path class="cls-3" d="M673.79,125.95c9.09,0,16.49-7.39,16.49-16.49h-5.96c0,5.8-4.72,10.52-10.52,10.52s-10.52-4.72-10.52-10.52h-5.96c0,9.09,7.39,16.49,16.49,16.49Z"/>
    <rect class="cls-1" x="142.35" y="74.91" width="287.06" height="104.6"/>
    <ellipse class="cls-2" cx="285.88" cy="179.51" rx="143.53" ry="117.17"/>
    <circle class="cls-3" cx="285.88" cy="119.15" r="18.92"/>
    <rect class="cls-1" x="409.75" y="192.6" width="287.06" height="104.6"/>
    <circle class="cls-1" cx="473.99" cy="192.6" r="64.24"/>
    <circle class="cls-1" cx="632.57" cy="192.6" r="64.24"/>
    <ellipse class="cls-1" cx="553.28" cy="297.2" rx="143.53" ry="117.17"/>
    <path class="cls-3" d="M553.28,242.06c9.09,0,16.49-7.39,16.49-16.49h-5.96c0,5.8-4.72,10.52-10.52,10.52s-10.52-4.72-10.52-10.52h-5.96c0,9.09,7.39,16.49,16.49,16.49Z"/>
    <circle class="cls-7" cx="473.99" cy="192.6" r="41.22"/>
    <circle class="cls-3" cx="473.99" cy="192.6" r="18.92"/>
    <circle class="cls-7" cx="632.57" cy="192.6" r="41.22"/>
    <circle class="cls-3" cx="632.57" cy="192.6" r="18.92"/>
    <circle class="cls-1" cx="594.5" cy="64.24" r="64.24"/>
    <path class="cls-3" d="M594.5,96.38c24.66,0,44.71-20.06,44.71-44.71h-16.17c0,15.74-12.81,28.54-28.54,28.54s-28.54-12.81-28.54-28.54h-16.17c0,24.66,20.06,44.71,44.71,44.71Z"/>
    <circle class="cls-1" cx="753.08" cy="64.24" r="64.24"/>
    <path class="cls-3" d="M757.03,96.38c24.66,0,44.71-20.06,44.71-44.71h-16.17c0,15.74-12.81,28.54-28.54,28.54s-28.54-12.81-28.54-28.54h-16.17c0,24.66,20.06,44.71,44.71,44.71Z"/>
    <circle class="cls-1" cx="206.59" cy="74.91" r="64.24"/>
    <circle class="cls-1" cx="365.18" cy="74.91" r="64.24"/>
    <circle class="cls-7" cx="206.59" cy="74.91" r="41.22"/>
    <circle class="cls-7" cx="365.18" cy="74.91" r="41.22"/>
    <circle class="cls-3" cx="365.18" cy="74.91" r="24.03"/>
    <circle class="cls-3" cx="206.59" cy="74.91" r="24.03"/>
    <g>
      <ellipse class="cls-2" cx="790.93" cy="457.92" rx="177.28" ry="33.71"/>
      <path class="cls-5" d="M792.42,214.43h0s0,0,0,0h0s0,0,0,0c-.11.1-66.68,58.58-56.6,137.02,10.08,78.51,55.01,112.81,55.01,112.81,0,0,43.52-33.36,55.27-111.63,11.74-78.21-53.56-138.09-53.67-138.2Z"/>
      <path class="cls-6" d="M902.75,241.22h0s0,0,0,0h0s0,0,0,0c-.12.06-68.69,33.63-97.14,106.63-28.47,73.07-14.99,116.4-14.99,116.4,0,0,42.66-17.59,84.99-84.3,42.29-66.65,27.17-138.61,27.14-138.73Z"/>
      <path class="cls-4" d="M960.87,281.41h0s0,0,0,0h0s0,0,0,0c-.13.02-75.35,13.11-123.04,75.27-47.74,62.21-46.89,107.58-46.89,107.58,0,0,45.88-4.98,105.15-57.22,59.22-52.2,64.78-125.51,64.79-125.64Z"/>
      <path class="cls-6" d="M671.01,246.24h0s0,0,0,0h0s0,0,0,0c.12.05,70.06,30.69,101.57,102.42,31.54,71.79,19.91,115.66,19.91,115.66,0,0-43.37-15.76-88.49-80.62-45.08-64.8-33.01-137.33-32.99-137.45Z"/>
      <path class="cls-4" d="M614.65,288.85h0s0,0,0,0h0s0,0,0,0c.13.02,75.84,9.91,126.12,69.99,50.33,60.14,51.41,105.5,51.41,105.5,0,0-46.05-3.03-107.47-52.71-61.38-49.64-70.04-122.65-70.05-122.78Z"/>
    </g>
    <g>
      <ellipse class="cls-2" cx="337.93" cy="477.31" rx="177.28" ry="33.71"/>
      <path class="cls-5" d="M339.42,233.82h0s0,0,0,0h0s0,0,0,0c-.11.1-66.68,58.58-56.6,137.02,10.08,78.51,55.01,112.81,55.01,112.81,0,0,43.52-33.36,55.27-111.63,11.74-78.21-53.56-138.09-53.67-138.2Z"/>
      <path class="cls-6" d="M449.75,260.61h0s0,0,0,0h0s0,0,0,0c-.12.06-68.69,33.63-97.14,106.63-28.47,73.07-14.99,116.4-14.99,116.4,0,0,42.66-17.59,84.99-84.3,42.29-66.65,27.17-138.61,27.14-138.73Z"/>
      <path class="cls-4" d="M507.86,300.8h0s0,0,0,0h0s0,0,0,0c-.13.02-75.35,13.11-123.04,75.27-47.74,62.21-46.89,107.58-46.89,107.58,0,0,45.88-4.98,105.15-57.22,59.22-52.2,64.78-125.51,64.79-125.64Z"/>
      <path class="cls-6" d="M218.01,265.63h0s0,0,0,0h0s0,0,0,0c.12.05,70.06,30.69,101.57,102.42,31.54,71.79,19.91,115.66,19.91,115.66,0,0-43.37-15.76-88.49-80.62-45.08-64.8-33.01-137.33-32.99-137.45Z"/>
      <path class="cls-4" d="M161.65,308.24h0s0,0,0,0h0s0,0,0,0c.13.02,75.84,9.91,126.12,69.99,50.33,60.14,51.41,105.5,51.41,105.5,0,0-46.05-3.03-107.47-52.71-61.38-49.64-70.04-122.65-70.05-122.78Z"/>
    </g>
    <g>
      <ellipse class="cls-2" cx="589.33" cy="497.26" rx="79.46" ry="15.11"/>
      <path class="cls-5" d="M590,388.12h0s0,0,0,0h0s0,0,0,0c-.05.04-29.89,26.26-25.37,61.42,4.52,35.19,24.66,50.57,24.66,50.57,0,0,19.51-14.95,24.77-50.04,5.26-35.06-24.01-61.9-24.06-61.95Z"/>
      <path class="cls-6" d="M639.46,400.13h0s0,0,0,0h0s0,0,0,0c-.05.03-30.79,15.07-43.54,47.8-12.76,32.75-6.72,52.17-6.72,52.17,0,0,19.12-7.88,38.1-37.79,18.96-29.88,12.18-62.13,12.17-62.18Z"/>
      <path class="cls-4" d="M665.5,418.15h0s0,0,0,0h0s0,0,0,0c-.06,0-33.78,5.88-55.15,33.74-21.4,27.89-21.02,48.22-21.02,48.22,0,0,20.56-2.23,47.13-25.65,26.54-23.4,29.04-56.26,29.04-56.32Z"/>
      <path class="cls-6" d="M535.58,402.38h0s0,0,0,0h0s0,0,0,0c.05.02,31.4,13.75,45.53,45.91,14.14,32.18,8.92,51.84,8.92,51.84,0,0-19.44-7.07-39.66-36.14-20.21-29.05-14.8-61.56-14.79-61.61Z"/>
      <path class="cls-4" d="M510.32,421.48h0s0,0,0,0h0s0,0,0,0c.06,0,33.99,4.44,56.53,31.37,22.56,26.96,23.04,47.29,23.04,47.29,0,0-20.64-1.36-48.18-23.63-27.51-22.25-31.39-54.98-31.4-55.04Z"/>
    </g>
    <g>
      <ellipse class="cls-2" cx="909.88" cy="213.86" rx="79.46" ry="15.11"/>
      <path class="cls-5" d="M910.55,104.72h0s0,0,0,0h0s0,0,0,0c-.05.04-29.89,26.26-25.37,61.42,4.52,35.19,24.66,50.57,24.66,50.57,0,0,19.51-14.95,24.77-50.04,5.26-35.06-24.01-61.9-24.06-61.95Z"/>
      <path class="cls-6" d="M960.01,116.73h0s0,0,0,0h0s0,0,0,0c-.05.03-30.79,15.07-43.54,47.8-12.76,32.75-6.72,52.17-6.72,52.17,0,0,19.12-7.88,38.1-37.79,18.96-29.88,12.18-62.13,12.17-62.18Z"/>
      <path class="cls-4" d="M986.06,134.74h0s0,0,0,0h0s0,0,0,0c-.06,0-33.78,5.88-55.15,33.74-21.4,27.89-21.02,48.22-21.02,48.22,0,0,20.56-2.23,47.13-25.65,26.54-23.4,29.04-56.26,29.04-56.32Z"/>
      <path class="cls-6" d="M856.13,118.97h0s0,0,0,0h0s0,0,0,0c.05.02,31.4,13.75,45.53,45.91,14.14,32.18,8.92,51.84,8.92,51.84,0,0-19.44-7.07-39.66-36.14-20.21-29.05-14.8-61.56-14.79-61.61Z"/>
      <path class="cls-4" d="M830.87,138.08h0s0,0,0,0h0s0,0,0,0c.06,0,33.99,4.44,56.53,31.37,22.56,26.96,23.04,47.29,23.04,47.29,0,0-20.64-1.36-48.18-23.63-27.51-22.25-31.39-54.98-31.4-55.04Z"/>
    </g>
    <g>
      <ellipse class="cls-2" cx="79.46" cy="350.22" rx="79.46" ry="15.11"/>
      <path class="cls-5" d="M80.13,241.08h0s0,0,0,0h0s0,0,0,0c-.05.04-29.89,26.26-25.37,61.42,4.52,35.19,24.66,50.57,24.66,50.57,0,0,19.51-14.95,24.77-50.04,5.26-35.06-24.01-61.9-24.06-61.95Z"/>
      <path class="cls-6" d="M129.59,253.09h0s0,0,0,0h0s0,0,0,0c-.05.03-30.79,15.07-43.54,47.8-12.76,32.75-6.72,52.17-6.72,52.17,0,0,19.12-7.88,38.1-37.79,18.96-29.88,12.18-62.13,12.17-62.18Z"/>
      <path class="cls-4" d="M155.64,271.1h0s0,0,0,0h0s0,0,0,0c-.06,0-33.78,5.88-55.15,33.74-21.4,27.89-21.02,48.22-21.02,48.22,0,0,20.56-2.23,47.13-25.65,26.54-23.4,29.04-56.26,29.04-56.32Z"/>
      <path class="cls-6" d="M25.71,255.33h0s0,0,0,0h0s0,0,0,0c.05.02,31.4,13.75,45.53,45.91,14.14,32.18,8.92,51.84,8.92,51.84,0,0-19.44-7.07-39.66-36.14-20.21-29.05-14.8-61.56-14.79-61.61Z"/>
      <path class="cls-4" d="M.45,274.44h0s0,0,0,0h0s0,0,0,0c.06,0,33.99,4.44,56.53,31.37,22.56,26.96,23.04,47.29,23.04,47.29,0,0-20.64-1.36-48.18-23.63C4.34,307.22.46,274.49.45,274.44Z"/>
    </g>
  </g>
</svg>